<svg xmlns="http://www.w3.org/2000/svg" width="342" height="100" viewBox="0 0 342 100">
  <g fill="none">
    <g fill="#E31337">
      <path d="M82.925566,56.4547061 C83.3085593,56.4547061 83.5477453,56.8691911 83.3558789,57.2003949 L58.7056966,99.7520764 C58.6168076,99.9055185 58.4528192,100 58.2753837,100 L43.2070374,100 C42.824044,100 42.5848581,99.585515 42.7767244,99.2543111 L67.4269067,56.7026297 C67.5157957,56.5491876 67.6797842,56.4547061 67.8572197,56.4547061 L82.925566,56.4547061 Z M68.2700709,44.2579667 C68.0926354,44.2579667 67.9286469,44.1634852 67.8397579,44.010043 L42.7767244,0.745688861 C42.5848581,0.414485006 42.824044,0 43.2070374,0 L58.2753837,0 C58.4528192,0 58.6168076,0.0944815123 58.7056966,0.247923631 L83.7687301,43.5122778 C83.9605965,43.8434817 83.7214106,44.2579667 83.3384172,44.2579667 L68.2700709,44.2579667 Z"/>
      <path d="M71.2495234.745448418C71.057303.414244331 71.2972551 0 71.6813264 0L86.771138 0C86.9492299 0 87.1138093.0945864131 87.202941.248164074L115.93304 49.7513578C116.02232 49.9051917 116.02232 50.0948083 115.93304 50.2486422L87.202941 99.7518359C87.1138093 99.9054136 86.9492299 100 86.771138 100L71.6813264 100C71.2972551 100 71.057303 99.5857557 71.2495234 99.2545516L99.8353181 50 71.2495234.745448418zM58.9861141 49.749517C59.076926 49.9035537 59.077383 50.0939785 58.9873115 50.2484409L30.1205735 99.7516346C29.9279978 100.08188 29.4470436 100.083012 29.252885 99.7536767L.0684313599 50.250483C-.0223804971 50.0964463-.0228375011 49.9060215.0672339832 49.7515591L28.9339719.248365398C29.1265476-.0818802262 29.6075018-.083012173 29.8016605.246323255L58.9861141 49.749517z"/>
    </g>
    <path fill="#212529" d="M171.220424,0 L182.876686,0 L182.876686,43 L171.220424,43 L171.220424,26.23 L154.656262,26.23 L154.656262,43 L143,43 L143,0 L154.656262,0 L154.656262,15.5414286 L171.220424,15.5414286 L171.220424,0 Z M207.416185,0 L218.919075,0 L218.919075,43 L207.416185,43 L207.416185,0 Z M256.500762,43 L239.624277,0.552857143 L239.624277,0 L252.266299,0 L262.821773,29.1785714 L273.377247,0 L286.019268,0 L286.019268,0.552857143 L269.142783,43 L256.500762,43 Z M318.022424,32.4342857 L342,32.4342857 L342,43 L306.34104,43 L306.34104,0 L341.569633,0 L341.569633,10.5657143 L318.022424,10.5657143 L318.022424,16.5242857 L332.962298,16.5242857 L332.962298,26.3528571 L318.022424,26.3528571 L318.022424,32.4342857 Z"/>
    <path fill="#E31337" d="M143,63.4405229 L146.660452,63.4405229 L153.882426,90.0156863 L164.072334,63.4405229 L164.764852,63.4405229 L174.855829,90.0156863 L182.226199,63.4405229 L185.837186,63.4405229 L175.647278,100 L174.95476,100 L164.418593,72.1333333 L153.684564,100 L153.041511,100 L143,63.4405229 Z M211.955009,62 L228.525976,99.1058824 L224.717127,99.1058824 L219.127517,86.9359477 L203.793189,86.9359477 L198.253045,99.1058824 L194.295799,99.1058824 L211.064628,62 L211.955009,62 Z M211.509819,69.8980392 L205.425553,83.3098039 L217.544618,83.3098039 L211.509819,69.8980392 Z M238.963212,63.4405229 L242.574198,63.4405229 L242.574198,95.6784314 L256.226696,95.6784314 L256.226696,99.1058824 L238.963212,99.1058824 L238.963212,63.4405229 Z M266.762864,63.4405229 L270.37385,63.4405229 L270.37385,95.6784314 L284.026348,95.6784314 L284.026348,99.1058824 L266.762864,99.1058824 L266.762864,63.4405229 Z M294.611981,63.4405229 L314.991797,63.4405229 L314.991797,66.9673203 L298.173502,66.9673203 L298.173502,78.0941176 L314.8434,78.0941176 L314.8434,81.5712418 L298.173502,81.5712418 L298.173502,95.579085 L314.8434,95.579085 L314.8434,99.1058824 L294.611981,99.1058824 L294.611981,63.4405229 Z M322.510564,66.9176471 L322.510564,63.4405229 L342,63.4405229 L342,66.9176471 L334.085508,66.9176471 L334.085508,99.1058824 L330.474522,99.1058824 L330.474522,66.9176471 L322.510564,66.9176471 Z"/>
  </g>
</svg>
